<svg xmlns="http://www.w3.org/2000/svg" aria-hidden="true" style="position:absolute;width:0;height:0;overflow:hidden"><defs>



<symbol id="icon-logout" viewBox="0 0 32 32"><path stroke-linecap="round" stroke-linejoin="round" stroke-width="1.5" d="M11.867 10.08c.413-4.8 2.88-6.76 8.28-6.76h.173c5.96 0 8.347 2.387 8.347 8.347v8.693c0 5.96-2.387 8.347-8.347 8.347h-.173c-5.36 0-7.827-1.933-8.267-6.653M2.667 16H19.84"/><path stroke-linecap="round" stroke-linejoin="round" stroke-width="1.5" d="M16.867 11.533 21.334 16l-4.467 4.467"/></symbol>



<symbol id="icon-help" viewBox="0 0 32 32"><path stroke-linecap="round" stroke-linejoin="round" stroke-width="2.88" d="M16 29.333c7.364 0 13.333-5.97 13.333-13.333S23.364 2.667 16 2.667 2.667 8.637 2.667 16 8.637 29.333 16 29.333z"/><path stroke-linecap="round" stroke-linejoin="round" stroke-width="2.88" d="M12.12 12a4.003 4.003 0 0 1 6.834-1.249c.608.722.941 1.637.94 2.582 0 2.667-4 4-4 4M16 22.666h.02"/></symbol>

<symbol id="icon-logo" viewBox="0 0 32 32"><path fill="#1f1f1f" d="M24 0H8a8 8 0 0 0-8 8v16a8 8 0 0 0 8 8h16a8 8 0 0 0 8-8V8a8 8 0 0 0-8-8z" style="fill:var(--color1, #1f1f1f)"/><path fill="#fff" d="M13.331 23.027c.245-1.272.453-2.61.747-3.949.145-.701-.032-.999-.815-.946s-1.657.027-2.49 0c-.833-.027-.982-.446-.502-1.044 2.363-2.918 4.753-5.8 7.134-8.674.267-.326.575-.558 1.014-.312s.349.549.276.915c-.263 1.339-.48 2.677-.77 3.989-.149.678.045.919.751.892a20.959 20.959 0 0 1 2.127 0c.403 0 .933-.21 1.141.339s-.231.781-.453 1.107a315.559 315.559 0 0 1-2.752 3.342 1579.8 1579.8 0 0 0-4.051 4.854c-.263.317-.557.571-1.005.41s-.353-.54-.353-.924z" style="fill:var(--color2, #fff)"/></symbol><symbol id="icon-add" viewBox="0 0 32 32"><path stroke-linecap="round" stroke-linejoin="round" stroke-width="2.286" d="M16 6.667v18.667M6.667 16h18.667"/></symbol><symbol id="icon-bell" viewBox="0 0 32 32"><path stroke-linecap="round" stroke-linejoin="round" stroke-width="3" d="M12.472 28c.94.83 2.175 1.333 3.528 1.333s2.588-.504 3.528-1.333M24 10.667a8 8 0 1 0-16 0c0 4.12-1.039 6.941-2.2 8.807-.979 1.574-1.469 2.361-1.451 2.58.02.243.071.336.267.481.177.131.974.131 2.569.131h17.63c1.595 0 2.393 0 2.57-.131.196-.145.247-.238.267-.481.018-.22-.472-1.006-1.451-2.58-1.161-1.866-2.2-4.687-2.2-8.807z"/></symbol><symbol id="icon-board-icon-1" viewBox="0 0 32 32"><path stroke-width="2.667" d="M4.396 6.978a3.465 3.465 0 0 1 2.582-2.582 7.408 7.408 0 0 1 3.377 0 3.465 3.465 0 0 1 2.582 2.582c.26 1.11.26 2.266 0 3.377a3.465 3.465 0 0 1-2.582 2.582c-1.11.26-2.266.26-3.377 0a3.465 3.465 0 0 1-2.582-2.582 7.408 7.408 0 0 1 0-3.377zM4.396 21.645a3.465 3.465 0 0 1 2.582-2.582 7.38 7.38 0 0 1 3.377 0 3.464 3.464 0 0 1 2.582 2.582 7.408 7.408 0 0 1 0 3.377 3.465 3.465 0 0 1-2.582 2.582 7.38 7.38 0 0 1-3.377 0 3.464 3.464 0 0 1-2.582-2.582 7.408 7.408 0 0 1 0-3.377zM19.063 6.978a3.464 3.464 0 0 1 2.582-2.582 7.408 7.408 0 0 1 3.377 0 3.465 3.465 0 0 1 2.582 2.582 7.38 7.38 0 0 1 0 3.377 3.464 3.464 0 0 1-2.582 2.582 7.408 7.408 0 0 1-3.377 0 3.465 3.465 0 0 1-2.582-2.582 7.38 7.38 0 0 1 0-3.377zM19.063 21.645a3.464 3.464 0 0 1 2.582-2.582 7.38 7.38 0 0 1 3.377 0 3.464 3.464 0 0 1 2.582 2.582 7.38 7.38 0 0 1 0 3.377 3.464 3.464 0 0 1-2.582 2.582 7.38 7.38 0 0 1-3.377 0 3.464 3.464 0 0 1-2.582-2.582 7.38 7.38 0 0 1 0-3.377z"/></symbol><symbol id="icon-board-icon-2" viewBox="0 0 32 32"><path stroke-linecap="round" stroke-linejoin="round" stroke-width="2.667" d="m16 2.667 2.683 6.975c.376.978.564 1.466.856 1.878.259.364.577.683.942.942.411.292.9.48 1.878.856l6.975 2.683-6.975 2.683c-.978.376-1.466.564-1.878.856a3.993 3.993 0 0 0-.942.942c-.292.411-.48.9-.856 1.878L16 29.335l-2.683-6.975c-.376-.978-.564-1.466-.856-1.878a4.012 4.012 0 0 0-.942-.942c-.411-.292-.9-.48-1.878-.856l-6.975-2.683 6.975-2.683c.978-.376 1.466-.564 1.878-.856.364-.259.683-.578.942-.942.292-.411.48-.9.856-1.878L16 2.667z"/></symbol><symbol id="icon-board-icon-3" viewBox="0 0 32 32"><path stroke-linecap="round" stroke-linejoin="round" stroke-width="2.667" d="M4.454 22.666a6.364 6.364 0 0 1 1.944-8.453l.003-.003a6.37 6.37 0 0 1 7.312.126l4.576 3.327a6.37 6.37 0 0 0 7.312.126l.003-.003a6.36 6.36 0 0 0 1.943-8.453m-4.878 18.213a6.365 6.365 0 0 1-8.453-1.944l-.003-.003a6.37 6.37 0 0 1 .126-7.312l3.327-4.576a6.37 6.37 0 0 0 .126-7.312l-.006-.003a6.363 6.363 0 0 0-8.453-1.942m16.094 2.118c5.207 5.207 5.207 13.648 0 18.855s-13.648 5.207-18.855 0c-5.207-5.207-5.207-13.648 0-18.855s13.648-5.207 18.855 0z"/></symbol><symbol id="icon-board-icon-4" viewBox="0 0 32 32"><path stroke-linecap="round" stroke-linejoin="round" stroke-width="2.667" d="m16 2.667 4.8 4.8C24-.933 32.933 8 24.533 11.2l4.8 4.8-4.8 4.8c-3.2-8.4-12.133.533-3.733 3.733l-4.8 4.8-4.8-4.8C8 32.933-.933 24 7.467 20.8l-4.8-4.8 4.8-4.8c3.2 8.4 12.133-.533 3.733-3.733l4.8-4.8z"/></symbol><symbol id="icon-board-icon-5" viewBox="0 0 32 32"><path stroke-linecap="round" stroke-linejoin="round" stroke-width="2.667" d="M27.333 9.704 16 16m0 0L4.667 9.704M16 16v12.667m12-7.256V10.588c0-.457 0-.685-.067-.889a1.343 1.343 0 0 0-.285-.485c-.145-.158-.345-.269-.744-.491l-9.867-5.481c-.378-.21-.567-.315-.767-.356a1.349 1.349 0 0 0-.537 0c-.2.041-.389.146-.767.356L5.099 8.723c-.399.222-.599.333-.744.491a1.34 1.34 0 0 0-.286.485c-.067.204-.067.432-.067.889v10.823c0 .457 0 .685.067.889.06.18.157.346.286.485.145.158.345.269.744.491l9.867 5.482c.378.21.567.315.767.356.177.036.36.036.537 0 .2-.041.389-.146.767-.356l9.867-5.482c.399-.222.599-.333.744-.491.129-.14.226-.305.285-.485.067-.204.067-.432.067-.889z"/></symbol><symbol id="icon-board-icon-6" viewBox="0 0 32 32"><path stroke-linecap="round" stroke-linejoin="round" stroke-width="2.667" d="M18.999 2.667h-7.674c-.239 0-.359 0-.465.036a.672.672 0 0 0-.249.154c-.08.078-.133.185-.24.399l-5.6 11.2c-.256.511-.383.767-.353.974a.669.669 0 0 0 .277.449c.172.12.458.12 1.029.12h8.274l-4 13.333 16.258-16.86c.548-.569.823-.853.839-1.097a.665.665 0 0 0-.235-.553c-.186-.157-.581-.157-1.372-.157h-9.49l3-8z"/></symbol><symbol id="icon-board-icon-7" viewBox="0 0 32 32"><path stroke-linecap="round" stroke-linejoin="round" stroke-width="2.667" d="M16 27.296a8 8 0 1 0 7.44-13.683m-14.88.001a8 8 0 1 0 9.546 4.773M24 10.667a8 8 0 1 1-16 0 8 8 0 0 1 16 0z"/></symbol><symbol id="icon-board-icon-8" viewBox="0 0 32 32"><path stroke-linecap="round" stroke-linejoin="round" stroke-width="2.667" d="M14.964 3.242c.378-.21.567-.315.767-.356.177-.036.36-.036.537 0 .2.041.389.146.767.356l9.867 5.482c.399.222.599.333.744.491.129.14.226.305.285.485.067.204.067.432.067.889v10.823c0 .457 0 .685-.067.889-.06.18-.157.346-.285.485-.145.158-.345.269-.744.491l-9.867 5.482c-.378.21-.567.315-.767.356-.177.036-.36.036-.537 0-.2-.041-.389-.146-.767-.356l-9.867-5.482c-.399-.222-.599-.333-.744-.491a1.34 1.34 0 0 1-.286-.485C4 22.097 4 21.869 4 21.412V10.589c0-.457 0-.685.067-.889.06-.18.157-.346.286-.485.145-.158.345-.269.744-.491l9.867-5.481z"/></symbol><symbol id="icon-close" viewBox="0 0 32 32"><path stroke-linecap="round" stroke-linejoin="round" stroke-width="2.667" d="M24 8 8 24M8 8l16 16"/></symbol><symbol id="icon-edit" viewBox="0 0 32 32"><path stroke-linecap="round" stroke-linejoin="round" stroke-width="2.6" d="m3.334 28.667 7.399-2.846c.473-.182.71-.273.931-.392.197-.106.384-.227.56-.364.199-.154.378-.333.736-.692L28 9.333A3.77 3.77 0 1 0 22.667 4L7.627 19.04c-.359.359-.538.538-.692.736a3.948 3.948 0 0 0-.364.56c-.119.221-.21.458-.392.931l-2.846 7.399zm0 0 2.744-7.135c.196-.511.295-.766.463-.883a.665.665 0 0 1 .505-.107c.201.038.395.232.782.619l3.012 3.012c.387.387.58.58.619.782a.665.665 0 0 1-.107.505c-.117.168-.372.267-.883.463l-7.135 2.744z"/></symbol><symbol id="icon-filter" viewBox="0 0 32 32"><path stroke-linecap="round" stroke-linejoin="round" stroke-width="3" d="M29.333 4H2.666l10.667 12.613v8.72L18.666 28V16.613L29.333 4z"/></symbol><symbol id="icon-menu" viewBox="0 0 32 32"><path stroke-linecap="round" stroke-linejoin="round" stroke-width="2.5" d="M4 16h24M4 8h24M4 24h24"/></symbol><symbol id="icon-move" viewBox="0 0 32 32"><path stroke-linecap="round" stroke-linejoin="round" stroke-width="2.6" d="M4.451 9.333a13.328 13.328 0 0 1 11.55-6.667c7.364 0 13.333 5.97 13.333 13.333s-5.97 13.333-13.333 13.333a13.329 13.329 0 0 1-11.55-6.667"/><path stroke-linecap="round" stroke-linejoin="round" stroke-width="2.6" d="M16 21.333 21.333 16 16 10.667M2.667 16h18.667"/></symbol><symbol id="icon-theme" viewBox="0 0 32 32"><path stroke-linecap="round" stroke-linejoin="round" stroke-width="2.824" d="M8.471 12.235 16 19.764l7.529-7.529"/></symbol><symbol id="icon-trash" viewBox="0 0 32 32"><path stroke-linecap="round" stroke-linejoin="round" stroke-width="2.6" d="M12 4h8M4 8h24M6.666 8l.801 12.018c.149 2.231.223 3.347.588 4.243a6 6 0 0 0 3.672 3.435C12.646 28 13.764 28 16 28c2.236 0 3.354 0 4.273-.304a6 6 0 0 0 3.672-3.435c.365-.896.439-2.012.588-4.243L25.334 8"/></symbol><symbol id="icon-user" viewBox="0 0 32 32"><path fill="#1f1f1f" d="M3.765 0h24.471a3.765 3.765 0 0 1 3.765 3.765v24.471a3.765 3.765 0 0 1-3.765 3.765H3.765A3.765 3.765 0 0 1 0 28.236V3.765A3.765 3.765 0 0 1 3.765 0z" style="fill:var(--color1, #1f1f1f)"/><path fill="#151515" d="M21.49 14.745a5.333 5.333 0 1 1-10.666 0 5.333 5.333 0 0 1 10.666 0z" style="fill:var(--color3, #151515)"/><path fill="#151515" d="M29.06 32.853c0-1.723-.339-3.429-.999-5.02s-1.626-3.038-2.844-4.256a13.128 13.128 0 0 0-9.276-3.843c-1.723 0-3.429.339-5.02.999s-3.038 1.626-4.256 2.844a13.128 13.128 0 0 0-3.843 9.276h26.237z" style="fill:var(--color3, #151515)"/></symbol></defs></svg>